<svg width="24.000000" height="24.000000" viewBox="0 0 24 24" fill="none" xmlns="http://www.w3.org/2000/svg" xmlns:xlink="http://www.w3.org/1999/xlink">
	<desc>
			Created with Pixso.
	</desc>
	<defs>
		<clipPath id="clip192_179">
			<rect id="calendar-todo-line" width="24.000000" height="24.000000" fill="white" fill-opacity="0"/>
		</clipPath>
	</defs>
	<rect id="calendar-todo-line" width="24.000000" height="24.000000" fill="#FFFFFF" fill-opacity="0"/>
	<g clip-path="url(#clip192_179)">
		<path id="矢量 43" d="M17 3L21 3C21.26 3 21.51 3.1 21.7 3.29C21.89 3.48 22 3.73 22 4L22 20C22 20.26 21.89 20.51 21.7 20.7C21.51 20.89 21.26 21 21 21L3 21C2.73 21 2.48 20.89 2.29 20.7C2.1 20.51 2 20.26 2 20L2 4C2 3.73 2.1 3.48 2.29 3.29C2.48 3.1 2.73 3 3 3L7 3L7 1L9 1L9 3L15 3L15 1L17 1L17 3ZM15 5L9 5L9 7L7 7L7 5L4 5L4 9L20 9L20 5L17 5L17 7L15 7L15 5ZM20 11L4 11L4 19L20 19L20 11ZM6 14L8 14L8 16L6 16L6 14ZM10 14L18 14L18 16L10 16L10 14Z" fill="#343A40" fill-opacity="1.000000" fill-rule="evenodd"/>
	</g>
</svg>
