<svg width="20.000000" height="20.000000" viewBox="0 0 20 20" fill="none" xmlns="http://www.w3.org/2000/svg" xmlns:xlink="http://www.w3.org/1999/xlink">
	<desc>
			Created with Pixso.
	</desc>
	<defs>
		<clipPath id="clip378_2903">
			<rect id="Help circle" rx="0.000000" width="19.000000" height="19.000000" transform="translate(0.500000 0.500000)" fill="white" fill-opacity="0"/>
		</clipPath>
	</defs>
	<rect id="Help circle" rx="0.000000" width="19.000000" height="19.000000" transform="translate(0.500000 0.500000)" fill="#FFFFFF" fill-opacity="0"/>
	<g clip-path="url(#clip378_2903)">
		<path id="Icon" d="M10 18.33C5.39 18.33 1.66 14.6 1.66 10C1.66 5.39 5.39 1.66 10 1.66C14.6 1.66 18.33 5.39 18.33 10C18.33 14.6 14.6 18.33 10 18.33ZM7.57 7.5C7.77 6.94 8.15 6.47 8.66 6.17C9.17 5.87 9.77 5.76 10.35 5.86C10.93 5.96 11.46 6.26 11.84 6.71C12.22 7.17 12.43 7.74 12.43 8.33C12.43 10 9.93 10.83 9.93 10.83M10 14.16L10 14.16" stroke="#212529" stroke-opacity="1.000000" stroke-width="2.000000" stroke-linejoin="round" stroke-linecap="round"/>
	</g>
</svg>
