<svg width="24.000000" height="24.000000" viewBox="0 0 24 24" fill="none" xmlns="http://www.w3.org/2000/svg" xmlns:xlink="http://www.w3.org/1999/xlink">
	<desc>
			Created with Pixso.
	</desc>
	<defs>
		<clipPath id="clip162_3087">
			<rect id="list-check-2" width="24.000000" height="24.000000" fill="white" fill-opacity="0"/>
		</clipPath>
	</defs>
	<rect id="list-check-2" width="24.000000" height="24.000000" fill="#FFFFFF" fill-opacity="0"/>
	<g clip-path="url(#clip162_3087)">
		<path id="矢量 41" d="M11 4L21 4L21 6L11 6L11 4ZM11 8L17 8L17 10L11 10L11 8ZM11 14L21 14L21 16L11 16L11 14ZM11 18L17 18L17 20L11 20L11 18ZM3 4L9 4L9 10L3 10L3 4ZM5 6L5 8L7 8L7 6L5 6ZM3 14L9 14L9 20L3 20L3 14ZM5 16L5 18L7 18L7 16L5 16Z" fill="#343A40" fill-opacity="1.000000" fill-rule="evenodd"/>
	</g>
</svg>
