<svg width="20.000000" height="20.000000" viewBox="0 0 20 20" fill="none" xmlns="http://www.w3.org/2000/svg" xmlns:xlink="http://www.w3.org/1999/xlink">
	<desc>
			Created with Pixso.
	</desc>
	<defs>
		<clipPath id="clip378_2865">
			<rect id="Check circle" rx="0.000000" width="19.000000" height="19.000000" transform="translate(0.500000 0.500000)" fill="white" fill-opacity="0"/>
		</clipPath>
	</defs>
	<rect id="Check circle" rx="0.000000" width="19.000000" height="19.000000" transform="translate(0.500000 0.500000)" fill="#FFFFFF" fill-opacity="0"/>
	<g clip-path="url(#clip378_2865)">
		<path id="Icon" d="M18.33 9.23L18.33 9.99C18.33 11.79 17.75 13.54 16.67 14.98C15.59 16.42 14.08 17.47 12.36 17.98C10.63 18.49 8.79 18.43 7.11 17.81C5.42 17.18 3.98 16.03 3 14.53C2.03 13.02 1.56 11.24 1.68 9.44C1.8 7.65 2.49 5.94 3.66 4.58C4.83 3.21 6.41 2.26 8.16 1.86C9.91 1.47 11.75 1.65 13.39 2.38M18.33 3.33L10 11.67L7.5 9.17" stroke="#212529" stroke-opacity="1.000000" stroke-width="2.000000" stroke-linejoin="round" stroke-linecap="round"/>
	</g>
</svg>
