<svg width="20" height="19" viewBox="0 0 20 19" fill="none" xmlns="http://www.w3.org/2000/svg">
<path d="M4.16663 12H3.33329C2.89127 12 2.46734 11.8244 2.15478 11.5118C1.84222 11.1993 1.66663 10.7754 1.66663 10.3333V2.83332C1.66663 2.3913 1.84222 1.96737 2.15478 1.65481C2.46734 1.34225 2.89127 1.16666 3.33329 1.16666H10.8333C11.2753 1.16666 11.6992 1.34225 12.0118 1.65481C12.3244 1.96737 12.5 2.3913 12.5 2.83332V3.66666M9.16663 6.99999H16.6666C17.5871 6.99999 18.3333 7.74618 18.3333 8.66666V16.1667C18.3333 17.0871 17.5871 17.8333 16.6666 17.8333H9.16663C8.24615 17.8333 7.49996 17.0871 7.49996 16.1667V8.66666C7.49996 7.74618 8.24615 6.99999 9.16663 6.99999Z" stroke="#343A40" stroke-width="2" stroke-linecap="round" stroke-linejoin="round"/>
</svg>
