<svg width="20.000000" height="20.000000" viewBox="0 0 20 20" fill="none" xmlns="http://www.w3.org/2000/svg" xmlns:xlink="http://www.w3.org/1999/xlink">
	<desc>
			Created with Pixso.
	</desc>
	<defs>
		<clipPath id="clip378_2935">
			<rect id="Message circle" rx="0.000000" width="19.000000" height="19.000000" transform="translate(0.500000 0.500000)" fill="white" fill-opacity="0"/>
		</clipPath>
	</defs>
	<rect id="Message circle" rx="0.000000" width="19.000000" height="19.000000" transform="translate(0.500000 0.500000)" fill="#FFFFFF" fill-opacity="0"/>
	<g clip-path="url(#clip378_2935)">
		<path id="Icon" d="M16.75 12.75C16.16 13.92 15.25 14.91 14.13 15.6C13.02 16.29 11.73 16.66 10.41 16.66C9.31 16.66 8.23 16.41 7.25 15.91L2.5 17.5L4.08 12.75C3.58 11.76 3.33 10.68 3.33 9.58C3.33 8.26 3.7 6.97 4.39 5.86C5.08 4.74 6.07 3.83 7.25 3.25C8.23 2.75 9.31 2.49 10.41 2.5L10.83 2.5C12.57 2.59 14.21 3.32 15.44 4.55C16.67 5.78 17.4 7.42 17.5 9.16L17.5 9.58C17.5 10.68 17.24 11.76 16.75 12.75Z" stroke="#212529" stroke-opacity="1.000000" stroke-width="2.000000" stroke-linejoin="round"/>
	</g>
</svg>
